<?xml version="1.0" encoding="UTF-8"?>
<svg version="1.1" xmlns="http://www.w3.org/2000/svg" width="2000" height="2000">
<path d="M0 0 C660 0 1320 0 2000 0 C2000 660 2000 1320 2000 2000 C1340 2000 680 2000 0 2000 C0 1340 0 680 0 0 Z " fill="#3C8BC1" transform="translate(0,0)"/>
<path d="M0 0 C153.32625 -0.0928125 153.32625 -0.0928125 309.75 -0.1875 C358.15510254 -0.22846802 358.15510254 -0.22846802 407.53808594 -0.27026367 C446.95751953 -0.28381348 446.95751953 -0.28381348 465.41412354 -0.28633118 C479.14568127 -0.28930863 492.87719438 -0.30222036 506.60873963 -0.32002028 C520.63536048 -0.33795539 534.66195342 -0.34449247 548.6885853 -0.34033485 C557.01084152 -0.33819532 565.3329932 -0.34402203 573.65522991 -0.36242279 C579.82655436 -0.37513189 585.99777881 -0.37182891 592.16910744 -0.36270332 C594.64377199 -0.36144416 597.11844586 -0.36513466 599.59309244 -0.37464774 C634.49819797 -0.50080297 667.26865808 4.74572858 700.375 15.625 C701.22408936 15.90182617 702.07317871 16.17865234 702.94799805 16.46386719 C707.54048442 18.01040539 711.82367679 19.80462653 716.12084961 22.04248047 C719.01303485 23.51619107 722.01341129 24.73112163 725 26 C745.93849881 35.76669251 765.24040017 48.23149067 783 63 C783.74854248 63.61319092 783.74854248 63.61319092 784.51220703 64.23876953 C792.00871251 70.39491523 799.07401064 76.89400271 805.9375 83.75 C806.63496338 84.44665771 807.33242676 85.14331543 808.05102539 85.86108398 C827.76452173 105.78703568 843.56145889 129.2556923 856.12304688 154.25634766 C856.90781322 155.81670436 857.71055037 157.36799259 858.515625 158.91796875 C862.94459965 167.52245263 866.20216683 176.41860222 869.21044922 185.60327148 C870.27518366 188.85157884 871.3746605 192.06850787 872.625 195.25 C875.2683777 202.45921192 877.05522615 209.83620612 878.46875 217.375 C878.83765428 219.19782116 879.25827265 221.01063209 879.71875 222.8125 C884.23266422 240.50704376 884.28079859 258.59799476 884.125 276.75 C884.11493255 278.82681852 884.10581346 280.90364185 884.09765625 282.98046875 C884.07598141 287.98710195 884.04166746 292.99349493 884 298 C884.98433447 297.99544336 884.98433447 297.99544336 885.98855448 297.99079466 C924.92761279 297.8115631 963.86661766 297.67440334 1002.80600533 297.59147736 C1007.48704461 297.58147235 1012.16808306 297.57111771 1016.84912109 297.56054688 C1017.78098655 297.55844839 1018.71285201 297.55634991 1019.67295581 297.55418783 C1034.73898351 297.51942766 1049.80476567 297.45637912 1064.87064797 297.38277763 C1080.34283969 297.30782459 1095.8149033 297.26350009 1111.28726912 297.24729204 C1120.82588522 297.23634403 1130.36380721 297.20183425 1139.90220952 297.13666826 C1146.45325675 297.09420613 1153.00394794 297.08163825 1159.55512261 297.09198898 C1163.32862657 297.09708651 1167.10092233 297.08957155 1170.87420845 297.0463562 C1199.88116221 296.73038022 1199.88116221 296.73038022 1213 306 C1213.78086723 306.52960075 1214.56173447 307.05920151 1215.36626434 307.60485077 C1221.52484843 312.05254637 1225.65829789 319.45101479 1227.375 326.75 C1228.77529019 335.90241216 1229.49641697 345.65193529 1225 354 C1224.58621094 354.79921875 1224.17242188 355.5984375 1223.74609375 356.421875 C1216.87998907 368.76963818 1206.59360472 376.39127179 1193.10385823 380.5902099 C1190.60355633 381.07721941 1188.277224 381.12409052 1185.72889328 381.12304783 C1184.11806842 381.1260344 1184.11806842 381.1260344 1182.47470164 381.12908131 C1181.29572283 381.12616847 1180.11674402 381.12325563 1178.90203857 381.12025452 C1177.64905385 381.12110894 1176.39606913 381.12196337 1175.10511518 381.12284368 C1171.62525946 381.12508229 1168.14543446 381.121076 1164.66558266 381.11606562 C1160.91374334 381.11175224 1157.16190579 381.11320818 1153.4100647 381.1139679 C1146.90908141 381.11449257 1140.40810815 381.11135169 1133.90712738 381.10573006 C1124.5077693 381.09760737 1115.10841607 381.09499905 1105.70905486 381.09374207 C1090.45967966 381.09155276 1075.2103098 381.08489595 1059.9609375 381.07543945 C1045.14648465 381.06626221 1030.33203325 381.0591829 1015.51757812 381.05493164 C1014.60460837 381.05466892 1013.69163862 381.05440619 1012.75100312 381.05413551 C1008.17095986 381.05283048 1003.59091659 381.05156677 999.01087332 381.05032361 C961.00724514 381.03995477 923.00362292 381.02233973 885 381 C885.00116985 381.90477643 885.00116985 381.90477643 885.00236334 382.82783118 C885.08720094 448.58047717 885.16571317 514.33312946 885.2117157 580.08581543 C885.21240598 581.0699289 885.21309627 582.05404237 885.21380747 583.06797747 C885.22877631 604.46176448 885.24262661 625.85555208 885.25532665 647.24934056 C885.26156266 657.74272457 885.26804552 668.23610841 885.2746582 678.72949219 C885.2756389 680.295716 885.2756389 680.295716 885.2766394 681.8935807 C885.2978992 715.66228227 885.33542042 749.43094167 885.3814861 783.19961775 C885.42878672 817.93712333 885.459459 852.67460563 885.46957495 887.41214287 C885.47101546 892.3324758 885.47264364 897.25280865 885.47438622 902.17314148 C885.47472333 903.1414162 885.47506045 904.10969091 885.47540778 905.10730729 C885.48128803 920.61649684 885.50440106 936.12561382 885.53416017 951.63477392 C885.56379294 967.27357673 885.57479124 982.91230851 885.56750689 998.55113834 C885.56406761 1007.00558388 885.56843717 1015.45983548 885.59602737 1023.91424179 C885.84941204 1104.7896477 885.84941204 1104.7896477 876 1137 C875.45910148 1138.97559834 874.92516004 1140.95313341 874.40234375 1142.93359375 C874.15806641 1143.84947266 873.91378906 1144.76535156 873.66210938 1145.70898438 C873.17199515 1147.55450882 872.68510345 1149.40089159 872.20117188 1151.24804688 C870.81983874 1156.40331404 869.17791896 1161.1320568 867 1166 C866.30070777 1168.07940482 865.61349277 1170.16290446 864.9375 1172.25 C861.89789562 1180.84852051 857.65857614 1188.70997074 853.27001953 1196.68652344 C852.10051811 1198.8168955 850.95204414 1200.95713469 849.80859375 1203.1015625 C839.68390607 1221.86118907 826.95806133 1238.84056841 812.80200195 1254.73193359 C812.08808792 1255.53376068 811.37417389 1256.33558777 810.6386261 1257.16171265 C810.09787949 1257.76834747 809.55713287 1258.3749823 809 1259 C896.41974717 1259.03147656 983.83949552 1259.06212951 1094.54496765 1259.08468628 C1095.967411 1259.08496518 1097.38985435 1259.08524408 1098.8122977 1259.08552299 C1128.66977657 1259.09136836 1158.5272555 1259.09680179 1188.38473453 1259.10175936 C1203.3831415 1259.10425014 1218.38154845 1259.10682009 1233.37995539 1259.10946488 C1235.64240806 1259.10986338 1237.90486074 1259.11025962 1240.16731341 1259.11065576 C1275.00576939 1259.1167757 1309.84422397 1259.12459328 1344.68267822 1259.1373291 C1345.80625942 1259.1377398 1345.80625942 1259.1377398 1346.95253923 1259.13815879 C1359.0295045 1259.14258353 1371.1064697 1259.14715075 1383.18343491 1259.15173688 C1417.96895747 1259.16494423 1452.75447896 1259.17709797 1487.54000378 1259.18227959 C1488.25534854 1259.18238666 1488.97069331 1259.18249373 1489.70771519 1259.18260404 C1505.41131314 1259.18493558 1521.11491111 1259.18672528 1536.81850919 1259.18800197 C1543.13712063 1259.18852521 1549.45573206 1259.18912645 1555.77434349 1259.18975449 C1556.81165983 1259.18985477 1556.81165983 1259.18985477 1557.86993206 1259.18995707 C1580.15111532 1259.19214989 1602.4322906 1259.20069176 1624.71347064 1259.21256442 C1647.7827406 1259.22482714 1670.85200204 1259.23002915 1693.92127607 1259.22700275 C1707.22524465 1259.22547904 1720.52918431 1259.22955991 1733.83314768 1259.24159509 C1742.71523783 1259.24908271 1751.597309 1259.24933586 1760.47940046 1259.24366363 C1765.54344053 1259.24063803 1770.60742582 1259.24079861 1775.67146007 1259.24976636 C1780.27935993 1259.25786448 1784.8871623 1259.25673494 1789.49506068 1259.24827995 C1791.15075957 1259.24685277 1792.80646564 1259.24877142 1794.46215534 1259.25447049 C1806.38183834 1259.2928943 1817.46419464 1258.9811656 1828.1875 1253.25 C1828.87529541 1252.89147949 1829.56309082 1252.53295898 1830.27172852 1252.16357422 C1841.70831275 1246.08343363 1851.12612779 1237.74774442 1857 1226 C1857.66 1226 1858.32 1226 1859 1226 C1859.11296165 1225.14356188 1859.2259233 1224.28712377 1859.34230803 1223.40473298 C1860.02754655 1219.85739732 1861.16509398 1216.86758031 1862.52307147 1213.52427232 C1865.23520795 1206.06271658 1865.70275058 1199.494841 1865.63085651 1191.61164284 C1865.63627776 1190.21221399 1865.64388674 1188.81279226 1865.65345529 1187.41338563 C1865.67332798 1183.59290319 1865.66245888 1179.77305283 1865.64627017 1175.95257631 C1865.63418698 1171.78696292 1865.65126453 1167.62144854 1865.66455668 1163.45585287 C1865.68385103 1156.16373453 1865.68473365 1148.87179665 1865.67340279 1141.57966423 C1865.65663861 1130.73666009 1865.66857861 1119.89381879 1865.68631649 1109.05082295 C1865.71534887 1090.80916294 1865.72122705 1072.56756447 1865.71384621 1054.32588577 C1865.7066156 1036.26794218 1865.70971473 1018.21004886 1865.72656822 1000.15211105 C1865.72813219 998.46706373 1865.72813219 998.46706373 1865.72972776 996.74797504 C1865.73507662 991.04282389 1865.74060962 985.33767294 1865.74621352 979.63252203 C1865.78556054 939.23743562 1865.80180973 898.84236972 1865.80444336 858.44726562 C1865.80705462 819.20734498 1865.82014818 779.96745067 1865.84741211 740.72753906 C1865.84824853 739.51770108 1865.84908496 738.30786311 1865.84994673 737.06136337 C1865.85835812 724.91152057 1865.8669824 712.76167793 1865.87576263 700.61183539 C1865.89364367 675.86186038 1865.91010396 651.1118845 1865.92570496 626.36190796 C1865.926424 625.2239785 1865.92714303 624.08604904 1865.92788386 622.91363688 C1865.94984563 588.03931943 1865.96578638 553.16500286 1865.9757843 518.29067993 C1865.97607046 517.30068313 1865.97635662 516.31068632 1865.97665145 515.29068962 C1865.98815019 475.19379386 1865.99327379 435.09689677 1866 395 C1781.85 395 1697.7 395 1611 395 C1610.34 396.32 1609.68 397.64 1609 399 C1607.40441817 400.84397882 1607.40441817 400.84397882 1605.47260571 402.77348995 C1604.73671064 403.51336712 1604.00081557 404.25324428 1603.24262065 405.01554197 C1602.43086684 405.8214701 1601.61911303 406.62739822 1600.78276062 407.45774841 C1599.92295005 408.31926783 1599.06313948 409.18078725 1598.17727405 410.06841332 C1595.78930612 412.45910832 1593.39692641 414.84522814 1591.00259316 417.22953808 C1588.42152399 419.80197708 1585.84623027 422.38018639 1583.27023315 424.95770264 C1578.80509544 429.42388966 1574.33630668 433.88639644 1569.86502647 438.34643364 C1563.39484918 444.80035337 1556.93020478 451.25979189 1550.46689544 457.72058869 C1539.97345547 468.20964959 1529.47555659 478.69423604 1518.97485352 489.17602539 C1508.78632579 499.34622083 1498.59988051 509.51849451 1488.41625977 519.69360352 C1487.47590436 520.63317075 1487.47590436 520.63317075 1486.51655187 521.59171914 C1483.37087511 524.73478534 1480.22523984 527.87789306 1477.07962549 531.02102172 C1455.3876118 552.69580969 1433.6911888 574.36617661 1411.99021912 596.03199768 C1411.07534015 596.94539746 1410.16046118 597.85879724 1409.21785861 598.7998758 C1407.53146758 600.48351409 1405.8450531 602.16712891 1404.15860957 603.85071462 C1402.71927077 605.2876664 1401.28011082 606.72479736 1399.84118402 608.16216171 C1398.70525482 609.29602674 1397.56837677 610.42894321 1396.42995036 611.56030095 C1393.8775684 614.09945063 1391.47150614 616.70640053 1389.125 619.4375 C1386.18574327 622.7793191 1383.15602289 625.65323294 1379.72265625 628.46875 C1377.15160155 630.75413195 1374.98047851 633.34035612 1372.7734375 635.97265625 C1370.62218644 638.43190581 1368.31683678 640.69534378 1366 643 C1365.02283155 643.9789005 1364.04621769 644.95835484 1363.07008839 645.93829155 C1362.5437908 646.46643924 1362.01749321 646.99458692 1361.4752472 647.53873909 C1360.63186194 648.38519388 1360.63186194 648.38519388 1359.7714386 649.24874878 C1358.50423148 650.5203549 1357.23701395 651.79195064 1355.9697876 653.0635376 C1355.29739799 653.73825356 1354.62500839 654.41296951 1353.93224335 655.10813141 C1338.44045033 670.65300938 1322.94006799 686.18929845 1307.43475056 701.72068596 C1298.47462855 710.6962796 1289.51734887 719.6746761 1280.56665039 728.65966797 C1272.74757217 736.50868829 1264.92319859 744.35238463 1257.09247655 752.18978894 C1252.9523837 756.33378306 1248.81494728 760.4803515 1244.68386269 764.63332748 C1240.79569988 768.54193024 1236.90046911 772.44334948 1232.99982643 776.33949661 C1231.57426807 777.76587654 1230.15125532 779.19480617 1228.73107529 780.62654114 C1214.84794159 794.6170229 1200.54114772 805.31366141 1181 810 C1180.01128906 810.27714844 1179.02257813 810.55429688 1178.00390625 810.83984375 C1169.5232815 812.928715 1161.27047201 813.344125 1152.5625 813.4375 C1151.4681665 813.45965576 1150.37383301 813.48181152 1149.24633789 813.50463867 C1143.35273031 813.48940071 1139.11595791 813.09401208 1133.71744156 810.60287285 C1130.08316065 809.1293523 1126.9130276 808.36783679 1123 809 C1115.06934307 813.15607242 1109.07319752 820.76293835 1103.046875 827.2109375 C1101.17504311 829.13537245 1099.29939536 831.05509737 1097.41729736 832.96939087 C1092.97914163 837.50048652 1088.5918629 842.07744928 1084.2232945 846.67557585 C1076.4163811 854.88924902 1068.52245209 863.01900869 1060.61517072 871.13595355 C1057.40513708 874.43548742 1054.22909539 877.7655943 1051.06121826 881.1055603 C1049.37559955 882.8577796 1047.68952667 884.60956215 1046.00292969 886.36083984 C1045.2670462 887.14971588 1044.53116272 887.93859192 1043.77297974 888.75137329 C1034.89546805 897.88463014 1023.9090907 902.72372845 1011.25 903.375 C998.86444165 903.0668057 988.2514117 897.68012862 979.8125 888.875 C970.51709584 877.92501389 968.21177506 866.94025379 968.82519531 853.03808594 C969.74582852 842.30422282 977.64844432 834.16776679 985 827 C986.17394455 825.65213774 987.34005837 824.29743157 988.5 822.9375 C991.12723188 819.89693207 993.860843 817.5113256 997 815 C998.83046847 812.93767219 1000.6030725 810.83923965 1002.3515625 808.70703125 C1004 807 1004 807 1007 806 C1007.28875 805.4225 1007.5775 804.845 1007.875 804.25 C1009.36925569 801.26148863 1011.63541672 799.30815617 1014 797 C1015.4453267 795.55779584 1016.88891284 794.11384642 1018.33129883 792.66870117 C1030.55419922 780.44580078 1042.77709961 768.22290039 1055 756 C1053.31995225 752.41527562 1051.37579624 750.19426883 1048.5 747.4453125 C1047.613125 746.58292969 1046.72625 745.72054687 1045.8125 744.83203125 C1043.941399 743.03109654 1042.0664064 741.23419611 1040.1875 739.44140625 C1039.300625 738.57644531 1038.41375 737.71148438 1037.5 736.8203125 C1036.27796875 735.64879639 1036.27796875 735.64879639 1035.03125 734.45361328 C1030.73916557 729.26906418 1030.20232256 722.91676859 1030.33691309 716.38273489 C1031.60304604 709.92356335 1036.16889024 706.07042056 1040.74689007 701.65348816 C1041.8140482 700.57670414 1042.87834306 699.49707629 1043.94002816 698.41489559 C1046.86669554 695.44840755 1049.83237253 692.5238537 1052.80599765 689.60454184 C1056.03333695 686.42191166 1059.2227274 683.20162444 1062.41708165 679.98595047 C1068.02097773 674.35510598 1073.64857006 668.74885296 1079.29234123 663.15798759 C1087.68448426 654.84429634 1096.03907619 646.4936185 1104.38636279 638.13492019 C1118.42995627 624.07424302 1132.50361981 610.04403316 1146.59462547 596.03088379 C1160.55105724 582.15136698 1174.4939692 568.25849579 1188.41906166 554.34753418 C1189.28480277 553.48268668 1190.15054389 552.61783918 1191.04251958 551.72678418 C1195.43918463 547.33451751 1199.83560956 542.94201056 1204.23194209 538.54941106 C1235.38006828 507.42859713 1266.55823004 476.33803477 1297.75415039 445.26513672 C1305.31458259 437.73448491 1312.87491949 430.20373751 1320.43481445 422.67254639 C1320.90365449 422.20548668 1321.37249454 421.73842698 1321.85554185 421.25721396 C1344.11493962 399.08204699 1366.35642167 376.88894555 1388.59399414 354.69189453 C1389.52636377 353.76123474 1390.4587334 352.83057496 1391.41935665 351.87171336 C1400.78309209 342.52511957 1410.14654993 333.17824773 1419.50980373 323.83117144 C1438.59708611 304.77687884 1457.68620749 285.7244291 1476.77644348 266.6730957 C1478.09360777 265.35860856 1478.09360777 265.35860856 1479.43738145 264.01756613 C1532.59723291 210.96614429 1585.79294402 157.95068767 1638.99639672 104.94299603 C1640.13384659 103.80971148 1641.27129581 102.67642627 1642.40874431 101.54314035 C1644.47998737 99.47947771 1646.55129039 97.41587528 1648.62263402 95.35231358 C1649.52975624 94.44852229 1650.43687846 93.544731 1651.37148923 92.61355209 C1652.15061244 91.83733749 1652.92973566 91.06112289 1653.73246868 90.26138663 C1655.36220267 88.63606899 1656.99058394 87.00939453 1658.61809357 85.38184953 C1660.79928588 83.20070933 1662.98575315 81.02498306 1665.17436218 78.85128784 C1667.29184316 76.74728381 1669.40657536 74.64052534 1671.52124023 72.53369141 C1672.63656855 71.42342905 1673.75278726 70.31406047 1674.86987305 69.20556641 C1676.49243165 67.59512532 1678.1117489 65.98148587 1679.73046875 64.3671875 C1680.22943161 63.87338593 1680.72839447 63.37958435 1681.24247742 62.87081909 C1683.44761157 60.66604374 1685.2617073 58.60743904 1687 56 C1687.66 56 1688.32 56 1689 56 C1689 55.34 1689 54.68 1689 54 C1690.57421875 52.484375 1690.57421875 52.484375 1692.6875 50.75 C1695.24634889 48.58102826 1697.33936811 46.59275827 1699.5 44 C1702.09611006 40.88466793 1704.8744284 38.41609498 1707.94921875 35.79296875 C1711.12426116 33.01707453 1714.05204684 30.01282255 1717 27 C1718.66666667 25.33333333 1720.33333333 23.66666667 1722 22 C1722.45375 21.47792969 1722.9075 20.95585937 1723.375 20.41796875 C1725.36526125 18.68127444 1726.64536036 18.3949103 1729.25 18.0625 C1729.97703125 17.95035156 1730.7040625 17.83820313 1731.453125 17.72265625 C1740.15908757 18.67069819 1746.39493611 26.95683223 1752.2277832 32.80786133 C1753.34810742 33.92083812 1754.46905012 35.03319264 1755.59056091 36.14497375 C1758.62219284 39.15445825 1761.64418414 42.17344671 1764.66381097 45.19497132 C1767.18870243 47.71998274 1769.71792637 50.24063297 1772.24703568 52.76141852 C1778.21316669 58.70834192 1784.17111836 64.66337458 1790.12426758 70.62329102 C1796.26122762 76.76689856 1802.41281445 82.89557947 1808.57159549 89.0173052 C1813.86564677 94.28065909 1819.14998103 99.55363351 1824.42675847 104.83430499 C1827.57559016 107.98520315 1830.72807012 111.13221935 1833.89016151 114.26981544 C1836.8620011 117.21938857 1839.82152482 120.18078916 1842.77207375 123.1516552 C1843.85534902 124.23834 1844.94288851 125.32079347 1846.03499985 126.39859772 C1847.52812002 127.87350176 1849.00491027 129.36308264 1850.47871399 130.85725403 C1851.30845387 131.6862814 1852.13819376 132.51530878 1852.99307728 133.3694582 C1856.54893138 138.03023699 1857.68068768 143.77700783 1857.38964367 149.57250023 C1855.74397471 159.8251011 1843.76043804 168.62146824 1836.7487793 175.56005859 C1835.29074668 177.01396593 1833.83339254 178.46855394 1832.37666321 179.92376709 C1829.25117092 183.04318762 1826.1210448 186.15785398 1822.98718834 189.26887131 C1818.03446946 194.18569906 1813.09276794 199.11350157 1808.15254211 204.0428772 C1798.56463822 213.60669893 1788.96545745 223.15915664 1779.36522675 232.71060181 C1767.12568132 244.88922413 1754.89183383 257.07355651 1742.66694385 269.26689017 C1737.751333 274.1690913 1732.83052263 279.06599574 1727.90559518 283.95883632 C1724.85092003 286.99545678 1721.80030882 290.03613498 1718.75076103 293.07790375 C1717.33227965 294.49102702 1715.91206082 295.90240864 1714.49001694 297.31194687 C1712.55492212 299.23046138 1710.62600623 301.15498016 1708.6985321 303.08114624 C1708.12967732 303.64212899 1707.56082253 304.20311173 1706.97472972 304.78109396 C1704.59141469 307.17429784 1703.08369182 308.74892454 1702 312 C1784.17 312 1866.34 312 1951 312 C1951.08052313 416.34093864 1951.08052313 416.34093864 1951.1026001 448.62928772 C1951.10338943 449.78082706 1951.10417877 450.93236641 1951.10499202 452.11880088 C1951.13149714 490.89112374 1951.15249785 529.66344755 1951.16937256 568.43577576 C1951.16992479 569.70136423 1951.17047702 570.96695271 1951.17104598 572.27089235 C1951.18272668 599.10717367 1951.19360469 625.94345526 1951.20351871 652.77973729 C1951.2085001 666.26147988 1951.21363999 679.7432224 1951.21892977 693.22496487 C1951.21972676 695.25857219 1951.22051924 697.29217952 1951.22131152 699.32578684 C1951.23354431 730.62216414 1951.24916604 761.91853521 1951.2746582 793.21490479 C1951.2752058 793.88726013 1951.27575339 794.55961548 1951.27631758 795.25234523 C1951.28516652 806.0919686 1951.29430117 816.93159174 1951.30347376 827.77121485 C1951.34186594 873.14828891 1951.36742481 918.52535431 1951.37565996 963.90244558 C1951.37681254 970.21963617 1951.37811509 976.53682672 1951.37950897 982.85401726 C1951.37977866 984.09730196 1951.38004836 985.34058666 1951.38032622 986.62154666 C1951.38504872 1006.61587202 1951.40358918 1026.61016172 1951.42732814 1046.60447255 C1951.45091153 1066.71708248 1951.4598633 1086.82965715 1951.45400551 1106.94228042 C1951.45096872 1118.8840329 1951.45902474 1130.82565603 1951.48319017 1142.7673851 C1951.4982494 1150.7567707 1951.4986129 1158.74607212 1951.48732725 1166.73546366 C1951.48131978 1171.27984735 1951.48141597 1175.82398737 1951.49953273 1180.36834437 C1951.67221214 1226.45445312 1941.79563508 1267.22147544 1910 1302 C1909.30052246 1302.76739502 1909.30052246 1302.76739502 1908.58691406 1303.55029297 C1896.62606123 1316.49214918 1882.56114308 1325.88427461 1867 1334 C1866.31607178 1334.35771484 1865.63214355 1334.71542969 1864.92749023 1335.08398438 C1861.32128651 1336.9329296 1857.85850354 1338.53837798 1853.9375 1339.625 C1853.08671875 1339.86476563 1852.2359375 1340.10453125 1851.359375 1340.3515625 C1850.58078125 1340.56554688 1849.8021875 1340.77953125 1849 1341 C1847.906875 1341.33 1846.81375 1341.66 1845.6875 1342 C1834.21699768 1345.1106447 1823.33891083 1347.15470407 1811.44844633 1347.1241985 C1809.86214854 1347.12611563 1809.86214854 1347.12611563 1808.24380433 1347.12807148 C1804.68133297 1347.13114702 1801.11890551 1347.12706424 1797.55643559 1347.12304783 C1794.97308071 1347.12378721 1792.38972592 1347.12496551 1789.80637142 1347.12654433 C1784.16225478 1347.12928009 1778.51814823 1347.12828605 1772.87403209 1347.12488318 C1764.42467255 1347.11980896 1755.97532024 1347.12051 1747.52595973 1347.12234976 C1733.12686816 1347.12531726 1718.72778064 1347.12354086 1704.32868958 1347.11920547 C1689.7331481 1347.11483028 1675.13760872 1347.11263255 1660.54206657 1347.11310768 C1659.1602493 1347.11315072 1659.1602493 1347.11315072 1657.75051653 1347.11319463 C1653.0534145 1347.113351 1648.35631248 1347.11354295 1643.65921045 1347.11374746 C1609.64415485 1347.11515569 1575.62910112 1347.11172159 1541.6140461 1347.10573006 C1507.9230403 1347.09980977 1474.23203529 1347.0959554 1440.54102898 1347.09487724 C1439.49513145 1347.09484283 1438.44923393 1347.09480842 1437.37164254 1347.09477296 C1427.81913058 1347.09445977 1418.26661862 1347.09417208 1408.71410666 1347.09391499 C1384.9664908 1347.09327555 1361.21887496 1347.0923162 1337.47125912 1347.09113979 C1335.84904862 1347.09105982 1335.84904862 1347.09105982 1334.19406618 1347.09097823 C1281.57281791 1347.08835602 1228.95157016 1347.08204819 1176.33032227 1347.07543945 C1158.06711833 1347.07314781 1139.80391439 1347.07087246 1121.54071045 1347.06866455 C1120.4080413 1347.0685276 1119.27537216 1347.06839065 1118.10837971 1347.06824955 C1065.46399372 1347.06190673 1012.81960764 1347.05818029 960.17522136 1347.05512976 C956.75795837 1347.05493169 953.34069537 1347.0547325 949.92343237 1347.05453308 C927.27725583 1347.05321331 904.63107928 1347.05193866 881.98490273 1347.05069422 C836.92374217 1347.04821765 791.86258162 1347.04547596 746.80142109 1347.04255217 C744.65543914 1347.04241293 742.5094572 1347.04227388 740.36347525 1347.04213501 C674.25692954 1347.03785614 608.15038401 1347.03238064 542.0438385 1347.02565002 C539.37707042 1347.02537919 536.71030235 1347.02510836 534.04353427 1347.02483763 C460.02902277 1347.01728658 386.0145114 1347.00848035 312 1347 C312 1192.23 312 1037.46 312 878 C209.04 878 106.08 878 0 878 C0 588.26 0 298.52 0 0 Z " fill="#F6F7F7" transform="translate(0,389)"/>
<path d="M0 0 C37.08375 -0.04125 74.1675 -0.0825 112.375 -0.125 C124.06212402 -0.14320801 135.74924805 -0.16141602 147.79052734 -0.18017578 C162.1184082 -0.18920898 162.1184082 -0.18920898 168.83682251 -0.19088745 C173.5052177 -0.19274242 178.1735669 -0.20020412 182.84194946 -0.21115112 C188.8151713 -0.22497018 194.7883272 -0.22896376 200.76156354 -0.22614455 C202.94222867 -0.22673321 205.12289633 -0.2306389 207.30354762 -0.23843026 C225.8478053 -0.30155674 243.10700904 1.04263454 261 6 C261.98484375 6.2475 262.9696875 6.495 263.984375 6.75 C271.22183903 8.5907423 278.07696801 11.21976076 285 14 C285.73033447 14.27005859 286.46066895 14.54011719 287.21313477 14.81835938 C294.14736094 17.44312872 300.43303519 20.86390006 306.8125 24.625 C307.87057861 25.24673096 308.92865723 25.86846191 310.01879883 26.5090332 C317.85459988 31.17943803 325.02932526 36.11997505 332 42 C333.0915176 42.89176491 334.18399836 43.78235198 335.27734375 44.671875 C347.34700435 54.58014658 357.68541713 65.48662334 367 78 C367.63679688 78.85335938 368.27359375 79.70671875 368.9296875 80.5859375 C380.78984788 97.0371277 392.1647738 116.61805494 396.0625 136.75 C396.51834027 139.09432139 397.04103529 141.09774593 397.96826172 143.30639648 C398.99144885 145.97767514 399.5563928 148.42276324 400.03515625 151.23828125 C400.20466797 152.22376953 400.37417969 153.20925781 400.54882812 154.22460938 C400.71833984 155.24361328 400.88785156 156.26261719 401.0625 157.3125 C401.23587891 158.31990234 401.40925781 159.32730469 401.58789062 160.36523438 C408.21943113 199.36682317 403.26454809 241.26069982 385.25 276.75 C384.90565918 277.43046387 384.56131836 278.11092773 384.20654297 278.81201172 C376.23452207 294.41890119 367.33181161 308.74870273 355.30078125 321.546875 C353.29192611 323.68874432 351.38869907 325.87802312 349.5 328.125 C342.6812507 335.88210929 334.7624851 342.05908756 326.5 348.1875 C325.7172168 348.76967285 324.93443359 349.3518457 324.12792969 349.95166016 C316.30921429 355.67009225 308.22693124 360.67523835 299.375 364.625 C295.50241819 366.38753972 291.64278905 368.14531423 287.875 370.125 C280.1434796 374.02437551 272.09196519 377.08563187 263.53995037 378.50114918 C261.06642921 378.98695318 258.77431143 379.66709625 256.38032532 380.45036316 C231.04431101 388.12854888 201.99259074 385.39797052 175.87480927 385.30384064 C170.28384421 385.2865307 164.69292094 385.28593923 159.10192871 385.28381348 C142.83876163 385.26818137 126.57562831 385.22629776 110.3125 385.1875 C73.909375 385.125625 37.50625 385.06375 0 385 C0 257.95 0 130.9 0 0 Z " fill="#5C60C6" transform="translate(396,1267)"/>
<path d="M0 0 C29.04 0 58.08 0 88 0 C88 13.2 88 26.4 88 40 C92.29 40.33 96.58 40.66 101 41 C104.61780232 41.71279167 108.12587728 42.464958 111.6875 43.375 C112.54666016 43.58382812 113.40582031 43.79265625 114.29101562 44.0078125 C123.30921345 46.23352272 131.87842458 48.59937165 140.125 52.9375 C140.77597656 53.27201172 141.42695312 53.60652344 142.09765625 53.95117188 C143.40960781 54.62533312 144.71944571 55.30362406 146.02709961 55.98608398 C148.02760905 57.01418889 150.04906081 57.99027563 152.07421875 58.96875 C155.86081137 60.85974191 159.27108494 63.0723753 162.6875 65.5625 C163.28199951 65.99304688 163.87649902 66.42359375 164.48901367 66.8671875 C189.51073258 85.23078081 206.30552163 107.50998239 213 138 C213.36480469 139.22847656 213.72960937 140.45695313 214.10546875 141.72265625 C215 146 215 146 215 158 C186.95 158 158.9 158 130 158 C128 153 128 153 127.3125 149.1875 C125.85323247 143.19205975 121.75843188 138.90153681 116.76171875 135.45703125 C115.36124403 134.60878635 113.94297729 133.78878843 112.50390625 133.0078125 C112.00761719 132.67523437 111.51132812 132.34265625 111 132 C111 131.34 111 130.68 111 130 C110.175 129.896875 109.35 129.79375 108.5 129.6875 C105.15721431 129.03088138 102.27404645 128.06946432 99.125 126.81640625 C98.42375 126.54699219 97.7225 126.27757812 97 126 C96.15262772 125.65882645 95.30525543 125.31765289 94.4322052 124.96614075 C90.17943812 123.76901781 86.35368086 123.71223741 81.9597168 123.7253418 C81.06931198 123.72023087 80.17890717 123.71511993 79.26152039 123.70985413 C76.32401758 123.69598248 73.3867504 123.69691474 70.44921875 123.69921875 C68.39101577 123.69532719 66.33281359 123.69099158 64.27461243 123.68623352 C59.95640465 123.67877406 55.63827861 123.67905821 51.32006836 123.68432617 C45.83111128 123.69008498 40.34249558 123.67327579 34.85359478 123.6499815 C30.59717403 123.63511641 26.34083276 123.63439027 22.08439064 123.63749123 C20.06373233 123.63698323 18.04306894 123.63184536 16.02243614 123.62167931 C-5.019437 123.5288972 -24.77977606 124.55598915 -40.7890625 139.69140625 C-46.04951477 145.27577799 -48.027669 151.55497833 -48.625 159.125 C-48.45931783 162.72030305 -47.93534703 164.76626857 -45.5 167.4375 C-44.04700532 168.68207331 -42.53494975 169.85803437 -41 171 C-40.40960938 171.44053711 -39.81921875 171.88107422 -39.2109375 172.33496094 C-37.15632745 173.85073943 -35.08394395 175.33732985 -33 176.8125 C-32.32388672 177.29323975 -31.64777344 177.77397949 -30.95117188 178.26928711 C-22.78626042 183.8455415 -14.15838733 184.64265521 -4.5625 185.85546875 C-3.66273438 185.97535156 -2.76296875 186.09523438 -1.8359375 186.21875 C-0.62236572 186.3724707 -0.62236572 186.3724707 0.61572266 186.52929688 C3 187 3 187 5.38916016 187.97924805 C8.46448677 189.18159895 11.34150179 189.64041954 14.609375 190.11328125 C15.90963623 190.30680176 17.20989746 190.50032227 18.54956055 190.69970703 C19.23480804 190.79946838 19.92005554 190.89922974 20.62606812 191.00201416 C38.91460049 193.67551343 57.02768922 197.0405418 75.01171875 201.328125 C79.10303005 202.24800153 83.22308808 202.98507409 87.34887695 203.73266602 C94.53355261 205.05680709 101.6599746 206.64030386 108.78613281 208.24707031 C113.58103846 209.31561289 118.2262078 210.1828454 123.125 210.625 C149.07400546 214.64046654 180.06084789 241.71563056 195.37841797 261.83374023 C210.59706 282.62731916 214.65180805 306.51534182 211.65136719 331.95605469 C210.76227235 337.3911644 209.47018609 342.69604213 208 348 C207.72671875 349.05832031 207.4534375 350.11664062 207.171875 351.20703125 C205.96368869 355.59634639 204.51605301 359.17122368 202 363 C201.73316406 363.72445313 201.46632813 364.44890625 201.19140625 365.1953125 C199.68011668 368.7530368 197.64872884 371.86775517 195.5 375.0625 C195.05930176 375.71863281 194.61860352 376.37476563 194.16455078 377.05078125 C187.82305093 386.34354354 180.88866896 395.02062997 172 402 C171.14148438 402.69480469 170.28296875 403.38960937 169.3984375 404.10546875 C145.7985164 422.58465225 115.19521143 435 85 435 C85 449.19 85 463.38 85 478 C56.95 478 28.9 478 0 478 C0 464.8 0 451.6 0 438 C-2.990625 437.938125 -5.98125 437.87625 -9.0625 437.8125 C-47.10449395 436.34251084 -81.56153346 419.84399434 -107.5625 392.3125 C-122 376.63779214 -122 376.63779214 -122 370 C-122.66 370 -123.32 370 -124 370 C-131.61988117 352.32016334 -136 337.62594142 -136 318 C-108.28 318 -80.56 318 -52 318 C-51.01 321.3 -50.02 324.6 -49 328 C-42.67440022 339.32380685 -31.34381183 345.99386264 -19.32463074 349.86073303 C-8.9966701 352.55433558 1.15146924 352.45502911 11.76171875 352.43359375 C13.76268183 352.43816737 15.76364335 352.4434764 17.76460266 352.44947815 C21.94266164 352.45836799 26.12052908 352.45603514 30.29858398 352.44604492 C35.60239554 352.43458698 40.90553809 352.4547396 46.20926189 352.48396206 C50.33877127 352.50248338 54.46812521 352.50199976 58.59766579 352.49632454 C60.5505142 352.49617312 62.50337439 352.5020654 64.45618248 352.51461601 C84.55506886 352.62558303 103.08172175 350.67007595 118.53515625 336.5390625 C124.85885125 329.89496695 126.91295996 323.51838017 126.8515625 314.390625 C125.13197623 307.54383197 118.68767565 304.46159164 113 301 C111.97261719 300.31808594 110.94523438 299.63617187 109.88671875 298.93359375 C99.79940028 292.53382482 88.85150636 290.80942852 77.1875 289.0625 C74.99459305 288.7226332 72.80188873 288.38145682 70.609375 288.0390625 C69.51044922 287.86793945 68.41152344 287.69681641 67.27929688 287.52050781 C49.13018426 284.63978208 31.04707131 281.31865056 13.07641602 277.48266602 C7.29599065 276.2546269 1.50218549 275.13527422 -4.31054688 274.07202148 C-8.39538086 273.31909658 -12.44739426 272.4717698 -16.5 271.5625 C-20.91628733 270.58787107 -25.32174364 269.76990936 -29.7890625 269.0625 C-31.35237305 268.81391235 -31.35237305 268.81391235 -32.94726562 268.56030273 C-35.00442811 268.23804134 -37.06297967 267.92447645 -39.12304688 267.62133789 C-50.96701989 265.76801905 -61.03490586 261.89005733 -71.375 255.875 C-72.87426025 255.01285889 -72.87426025 255.01285889 -74.40380859 254.13330078 C-97.01507881 240.96015986 -114.97896283 225.18972865 -129 203 C-129.80630859 201.75863281 -129.80630859 201.75863281 -130.62890625 200.4921875 C-141.82073871 180.14919858 -142.01145872 151.96033789 -136 130 C-126.03649159 95.78365153 -100.64406849 69.91807948 -70 53 C-67.68299213 51.96273485 -65.34805725 50.96492052 -63 50 C-62.36126953 49.72752441 -61.72253906 49.45504883 -61.06445312 49.17431641 C-49.57241155 44.28769563 -38.28486897 41.15667075 -26 39 C-24.80246094 38.77441406 -23.60492188 38.54882812 -22.37109375 38.31640625 C-14.6533184 36.96974268 -8.04320753 37 0 37 C0 24.79 0 12.58 0 0 Z " fill="#4D75C4" transform="translate(376,579)"/>
<path d="M0 0 C222.42 0 444.84 0 674 0 C674 27.72 674 55.44 674 84 C451.58 84 229.16 84 0 84 C0 56.28 0 28.56 0 0 Z " fill="#F7F8F8" transform="translate(970,1375)"/>
<path d="M0 0 C2.75171018 1.78683441 4.95647513 3.97807797 7.25 6.3125 C7.92764404 6.97475586 8.60528809 7.63701172 9.3034668 8.31933594 C11.55374941 10.52869508 13.77717018 12.76304502 16 15 C17.60455947 16.59336411 19.21004923 18.18579187 20.81640625 19.77734375 C25.90023337 24.82917196 30.95234557 29.91206407 36 35 C39.41368557 38.44047958 42.83083049 41.87747133 46.25 45.3125 C47.01159424 46.08239258 47.77318848 46.85228516 48.55786133 47.64550781 C51.90456948 51.00738959 55.2688268 54.2826484 58.87084961 57.37084961 C63.58986132 61.43641398 67.95250464 65.8394325 72.336092 70.2609272 C73.85261785 71.79042766 75.37243019 73.31659716 76.89305115 74.84202576 C80.11905328 78.07935152 83.34107712 81.32061829 86.5625 84.5625 C90.30405938 88.32779315 94.04730378 92.09137978 97.79481316 95.85075188 C99.28071496 97.34306105 100.76353553 98.83838381 102.24623108 100.33387756 C106.08138013 104.18287748 109.89085116 107.9916737 114.04663086 111.49584961 C117.99625053 114.84471701 119.68446945 117.39687293 120.3125 122.578125 C120.57956128 128.68715185 120.06459976 133.28984616 116 138 C114.3439167 139.54950368 112.63340746 140.98082037 110.86328125 142.3984375 C108.20687729 144.68171973 106.01987337 147.29337054 103.7734375 149.97265625 C101.62204681 152.43206544 99.31633599 154.69427529 97 157 C95.93910815 158.0661113 94.87902055 159.1330233 93.81959534 160.20059204 C93.24081635 160.78370651 92.66203735 161.36682098 92.0657196 161.96760559 C91.4479213 162.59011703 90.83012299 163.21262848 90.19360352 163.85400391 C83.43920273 170.65741717 76.67716791 177.4531905 69.91076756 184.24466896 C65.82250539 188.34862187 61.73710863 192.45534732 57.65795898 196.56835938 C53.70359491 200.55532882 49.74193756 204.53491537 45.77512932 208.50950241 C44.26744397 210.02272204 42.76239743 211.53857566 41.26007271 213.05711746 C39.15892416 215.18006032 37.04855537 217.29341087 34.93579102 219.40478516 C34.32001694 220.03134506 33.70424286 220.65790497 33.06980896 221.30345154 C28.88844111 225.4551702 25.0153138 228.56026674 19 229.4375 C13.15319616 228.58484111 9.07941215 224.32996712 5.02220154 220.28289795 C4.5591614 219.82368336 4.09612126 219.36446877 3.61904961 218.89133859 C2.08299235 217.36552396 0.55409574 215.83273928 -0.97485352 214.29980469 C-2.08050753 213.198502 -3.18657741 212.09761668 -4.29302979 210.99711609 C-7.28736494 208.01613738 -10.27529813 205.0288201 -13.26169324 202.03988934 C-15.75979553 199.54071497 -18.26087343 197.0445289 -20.76190323 194.54828477 C-26.6648303 188.65644147 -32.5624272 182.75929986 -38.45678711 176.85888672 C-44.52721963 170.78241587 -50.60676771 164.71517646 -56.69085938 158.65238452 C-61.92362318 153.43726411 -67.1505317 148.2163252 -72.3728556 142.99075055 C-75.48776363 139.87403376 -78.60483042 136.75955837 -81.72760201 133.65071869 C-84.6654289 130.72550991 -87.59584595 127.79307128 -90.52085876 124.85505104 C-91.59172414 123.78182894 -92.66512077 122.71112528 -93.74130058 121.64323235 C-107.80273711 107.68224052 -107.80273711 107.68224052 -108.1875 100.5 C-105.3918562 92.26020776 -98.46487883 86.17110726 -92.42773438 80.15307617 C-91.58793533 79.3081662 -90.74813629 78.46325623 -89.88288879 77.59274292 C-87.59952236 75.29793339 -85.31176071 73.00763253 -83.02139473 70.71981215 C-81.10349533 68.80298926 -79.18859577 66.88318288 -77.27362394 64.96343595 C-72.75586925 60.43462869 -68.23286027 55.91111726 -63.70654297 51.39086914 C-59.04666168 46.73704018 -54.39606444 42.07407775 -49.74985075 37.40660685 C-45.74744357 33.38656707 -41.73923533 29.37237624 -37.72637606 25.3627699 C-35.3352178 22.97342017 -32.94631262 20.58192511 -30.56303406 18.18471336 C-27.9065512 15.51590071 -25.24071051 12.85679614 -22.57226562 10.19995117 C-21.39849113 9.01471107 -21.39849113 9.01471107 -20.20100403 7.80552673 C-14.28783273 1.9490481 -8.77002013 -3.10091951 0 0 Z " fill="#F5F7F7" transform="translate(1879,265)"/>
<path d="M0 0 C83.49 0 166.98 0 253 0 C253 28.05 253 56.1 253 85 C252 86 252 86 250.25997013 86.1241985 C249.49483366 86.12381878 248.7296972 86.12343906 247.94137478 86.12304783 C246.62166468 86.1260344 246.62166468 86.1260344 245.27529377 86.12908131 C244.29768764 86.12616847 243.32008151 86.12325563 242.31285095 86.12025452 C240.76798652 86.12153615 240.76798652 86.12153615 239.19191271 86.12284368 C235.7124786 86.12450157 232.23309184 86.11897208 228.75366211 86.11352539 C226.27078757 86.11324356 223.78791294 86.11340117 221.30503845 86.1139679 C215.94498514 86.11419622 210.5849468 86.11134478 205.22489738 86.10573006 C197.47508204 86.09761728 189.72527258 86.09500007 181.97545344 86.09374207 C169.40314727 86.09155119 156.83084758 86.08489016 144.25854492 86.07543945 C132.04272494 86.06626624 119.82690671 86.05918496 107.61108398 86.05493164 C106.85862382 86.05466892 106.10616366 86.05440619 105.33090167 86.05413551 C101.55618636 86.05283051 97.78147104 86.05156679 94.00675571 86.05032361 C62.67116474 86.0399499 31.3355858 86.02151101 0 86 C0 57.62 0 29.24 0 0 Z " fill="#F4F6F7" transform="translate(1392,1209)"/>
<path d="M0 0 C-1.31784106 2.91420765 -2.735537 4.98484634 -4.99475288 7.24084854 C-5.6118126 7.86189036 -6.22887232 8.48293217 -6.86463082 9.12279344 C-7.54361204 9.79594897 -8.22259325 10.4691045 -8.92214966 11.16265869 C-10.00277076 12.24584306 -10.00277076 12.24584306 -11.10522258 13.35090995 C-13.52651718 15.77550541 -15.95490325 18.19287172 -18.38330078 20.61035156 C-20.11799336 22.34448016 -21.85224598 24.07904895 -23.58609009 25.81402588 C-27.3230761 29.5514677 -31.06310956 33.28581901 -34.80594254 37.01740265 C-40.21744238 42.41264844 -45.62341119 47.81340839 -51.028046 53.21553013 C-59.79685367 61.97996055 -68.57011838 70.73991534 -77.34619141 79.49707031 C-85.87132046 88.00384135 -94.39434643 96.51271043 -102.91455078 105.02441406 C-103.43973656 105.54907439 -103.96492233 106.07373472 -104.50602283 106.61429384 C-107.14071248 109.24637343 -109.77536083 111.87849436 -112.40998864 114.51063585 C-134.26692471 136.34683849 -156.13117001 158.17570876 -178 180 C-178.66 179.67 -179.32 179.34 -180 179 C-133 132 -86 85 -39 38 C-38.10868724 37.10835994 -37.21737448 36.21671988 -36.29905224 35.29806042 C-34.14519943 33.14513679 -31.98637443 30.99730056 -29.82563782 28.85128784 C-27.70815684 26.74728381 -25.59342464 24.64052534 -23.47875977 22.53369141 C-22.36343145 21.42342905 -21.24721274 20.31406047 -20.13012695 19.20556641 C-18.50756835 17.59512532 -16.8882511 15.98148587 -15.26953125 14.3671875 C-14.77056839 13.87338593 -14.27160553 13.37958435 -13.75752258 12.87081909 C-11.55238843 10.66604374 -9.7382927 8.60743904 -8 6 C-7.34 6 -6.68 6 -6 6 C-6 5.34 -6 4.68 -6 4 C-2.47058824 0 -2.47058824 0 0 0 Z " fill="#EAF5F5" transform="translate(1695,439)"/>
<path d="M0 0 C0.33 0 0.66 0 1 0 C1.04241723 2.33294775 1.04092937 4.66702567 1 7 C0.67 7.33 0.34 7.66 0 8 C-0.23653523 10.52596259 -0.42173692 13.03107207 -0.5625 15.5625 C-0.60568359 16.27341797 -0.64886719 16.98433594 -0.69335938 17.71679688 C-0.79971777 19.47761912 -0.90038846 21.2387832 -1 23 C-1.33 23 -1.66 23 -2 23 C-2.05429278 20.29139335 -2.09381211 17.58389099 -2.125 14.875 C-2.14175781 14.11445312 -2.15851562 13.35390625 -2.17578125 12.5703125 C-2.21546246 7.96729269 -1.75907577 4.33535996 0 0 Z " fill="#D0DCED" transform="translate(971,1234)"/>
<path d="M0 0 C0.66 0.33 1.32 0.66 2 1 C2.13536629 3.41854446 2.23420279 5.82949783 2.3125 8.25 C2.35439453 8.93191406 2.39628906 9.61382812 2.43945312 10.31640625 C2.48828125 12.328125 2.48828125 12.328125 2 16 C-0.51953125 18.484375 -0.51953125 18.484375 -3 20 C-1.125 15.25 -1.125 15.25 0 13 C0.07092842 10.7927077 0.08415025 8.58332548 0.0625 6.375 C0.04896484 4.59222656 0.04896484 4.59222656 0.03515625 2.7734375 C0.02355469 1.85820312 0.01195312 0.94296875 0 0 Z " fill="#33D1C5" transform="translate(1998,383)"/>
<path d="M0 0 C-1.40844718 3.21524305 -3.10344786 5.32183868 -5.625 7.75 C-6.57246094 8.67039062 -6.57246094 8.67039062 -7.5390625 9.609375 C-8.02117187 10.06828125 -8.50328125 10.5271875 -9 11 C-9.66 10.67 -10.32 10.34 -11 10 C-9.625 8 -9.625 8 -8 6 C-7.34 6 -6.68 6 -6 6 C-6 5.34 -6 4.68 -6 4 C-2.47058824 0 -2.47058824 0 0 0 Z " fill="#DBF3F3" transform="translate(1695,439)"/>
</svg>
